<svg width="24" height="24" viewBox="0 0 24 24" fill="none" xmlns="http://www.w3.org/2000/svg">
<path fill-rule="evenodd" clip-rule="evenodd" d="M18.625 4.5H16.75V2.46875C16.75 2.21094 16.5391 2 16.2812 2H14.7187C14.4609 2 14.25 2.21094 14.25 2.46875V4.5H9.25V2.46875C9.25 2.21094 9.03906 2 8.78125 2H7.21875C6.96094 2 6.75 2.21094 6.75 2.46875V4.5H4.875C3.83984 4.5 3 5.33984 3 6.375V20.125C3 21.1602 3.83984 22 4.875 22H18.625C19.6602 22 20.5 21.1602 20.5 20.125V6.375C20.5 5.33984 19.6602 4.5 18.625 4.5ZM18.3906 20.125H5.10937C4.98047 20.125 4.875 20.0195 4.875 19.8906V8.25H18.625V19.8906C18.625 20.0195 18.5195 20.125 18.3906 20.125Z" fill="#B9B9C0"/>
</svg>
