<svg width="24" height="24" viewBox="0 0 24 24" fill="none" xmlns="http://www.w3.org/2000/svg">
<path fill-rule="evenodd" clip-rule="evenodd" d="M17.2499 15.0583L20.7552 18.5633C21.0822 18.8938 21.0822 19.4281 20.7517 19.7586L19.7567 20.7535C19.4297 21.0839 18.8953 21.0839 18.5648 20.7535L15.0595 17.2485C14.9013 17.0903 14.8134 16.8758 14.8134 16.6508V16.0778C13.5723 17.0481 12.0112 17.6246 10.313 17.6246C6.27329 17.6246 3 14.3517 3 10.3123C3 6.27297 6.27329 3 10.313 3C14.3528 3 17.6261 6.27297 17.6261 10.3123C17.6261 12.0103 17.0495 13.5712 16.0791 14.8122H16.6522C16.8772 14.8122 17.0917 14.9001 17.2499 15.0583ZM5.81277 10.3123C5.81277 12.8013 7.82737 14.8122 10.3131 14.8122C12.8023 14.8122 14.8134 12.7978 14.8134 10.3123C14.8134 7.82332 12.7988 5.81243 10.3131 5.81243C7.82386 5.81243 5.81277 7.82684 5.81277 10.3123Z" fill="#B9B9C0"/>
</svg>
