<svg width="24" height="24" viewBox="0 0 24 24" fill="none" xmlns="http://www.w3.org/2000/svg">
<path fill-rule="evenodd" clip-rule="evenodd" d="M14.0823 12L18.7951 7.28732C19.0677 7.01477 19.0677 6.57246 18.7951 6.29946L17.7001 5.20442C17.4275 4.93186 16.9852 4.93186 16.7122 5.20442L11.9998 9.91753L7.28696 5.20486C7.01439 4.9323 6.57207 4.9323 6.29907 5.20486L5.20443 6.29946C4.93186 6.57202 4.93186 7.01433 5.20443 7.28732L9.91725 12L5.20443 16.7127C4.93186 16.9852 4.93186 17.4275 5.20443 17.7005L6.2995 18.7956C6.57207 19.0681 7.01439 19.0681 7.28739 18.7956L11.9998 14.0825L16.7126 18.7951C16.9852 19.0677 17.4275 19.0677 17.7005 18.7951L18.7956 17.7001C19.0681 17.4275 19.0681 16.9852 18.7956 16.7122L14.0823 12Z" fill="#B9B9C0"/>
</svg>
